<?xml version="1.0" standalone="no"?>
<!DOCTYPE svg PUBLIC "-//W3C//DTD SVG 20010904//EN"
 "http://www.w3.org/TR/2001/REC-SVG-20010904/DTD/svg10.dtd">
<svg version="1.0" xmlns="http://www.w3.org/2000/svg"
 width="1280.000000pt" height="1483.000000pt" viewBox="0 0 1280.000000 1483.000000"
 preserveAspectRatio="xMidYMid meet">
<g transform="translate(0.000000,1483.000000) scale(0.100000,-0.100000)"
fill="white" stroke="white">
<path d="M6005 14015 c-990 -92 -1842 -381 -2590 -878 -1203 -800 -2028 -2057
-2289 -3487 -50 -274 -75 -523 -83 -835 -12 -478 41 -964 157 -1433 160 -647
395 -1151 896 -1923 87 -134 207 -320 267 -414 96 -150 131 -196 141 -183 4 3
60 484 106 894 36 326 68 523 120 732 214 868 720 1619 1446 2148 379 276 833
488 1290 603 507 128 1057 149 1555 61 636 -114 1244 -394 1775 -818 129 -103
365 -331 473 -457 393 -458 662 -1009 797 -1635 49 -229 86 -483 144 -1012 63
-576 58 -544 75 -527 20 21 552 856 674 1059 375 624 621 1302 720 1985 42
287 46 361 46 770 -1 407 -6 488 -51 805 -158 1114 -635 2095 -1399 2879 -466
478 -1009 882 -1554 1156 -535 268 -1063 424 -1691 501 -187 23 -816 28 -1025
9z m865 -840 c548 -65 1040 -210 1510 -444 306 -153 554 -312 840 -539 186
-148 539 -500 684 -682 549 -689 864 -1451 973 -2350 25 -205 25 -744 0 -952
-21 -177 -58 -388 -92 -535 -33 -139 -96 -353 -104 -353 -3 0 -41 69 -83 153
-732 1441 -1784 2305 -3155 2591 -362 75 -626 100 -1058 100 -397 0 -620 -18
-953 -80 -746 -137 -1415 -451 -1977 -929 -133 -112 -384 -363 -501 -500 -294
-343 -564 -753 -781 -1189 l-79 -158 -42 138 c-78 259 -125 487 -159 769 -13
114 -17 227 -17 470 0 333 9 456 55 730 160 963 606 1816 1301 2491 773 749
1747 1192 2823 1283 162 14 654 6 815 -14z"/>
<path d="M6134 7675 c-284 -51 -537 -214 -695 -446 -237 -350 -250 -809 -33
-1170 62 -103 200 -250 299 -318 178 -123 356 -181 585 -188 166 -6 292 14
430 68 180 69 372 219 478 373 414 598 147 1418 -535 1645 -146 49 -374 64
-529 36z"/>
<path d="M8680 5335 c-20 -25 -572 -467 -730 -585 -840 -628 -1667 -762 -2540
-413 -430 172 -806 429 -1373 936 -42 39 -80 67 -84 63 -11 -11 16 -244 41
-356 75 -325 245 -668 471 -945 86 -106 261 -281 360 -360 584 -469 1371 -634
2112 -444 157 40 284 88 448 170 526 260 953 723 1169 1269 82 209 154 528
144 644 -3 37 -4 38 -18 21z"/>
<path d="M1335 4018 c14 -46 163 -346 225 -453 523 -905 1313 -1663 2250
-2158 1157 -610 2547 -776 3835 -457 688 170 1342 484 1941 932 617 463 1102
1002 1464 1628 85 147 263 506 258 520 -2 6 -68 -47 -148 -116 -518 -452 -953
-784 -1385 -1056 -1424 -899 -2903 -1234 -4380 -992 -1057 173 -2053 616
-3065 1362 -218 162 -499 390 -852 694 -75 65 -140 118 -143 118 -4 0 -3 -10
0 -22z"/>
</g>
</svg>