<?xml version="1.0" encoding="UTF-8"?>
<svg id="uuid-dca4a382-f976-4312-a706-77318a2e9426" data-name="Calque 1" xmlns="http://www.w3.org/2000/svg" width="366.3" height="424.51" viewBox="0 0 366.3 424.51">
  <path d="M72.3,138.72c1.45,12.53,2.44,24.48,4.27,36.3,5.52,35.68,24.17,62.68,55.8,79.82,62.86,34.07,140.53-1.29,156.49-71.05,2.55-11.13,3.14-22.7,4.62-34.07,.45-3.45,.8-6.92,1.2-10.42,.34,.12,.6,.13,.68,.25,9.25,14.9,19.7,29.08,27.08,45.1,8.8,19.1,13.36,39.17,13.9,60.2,1.86,71.84-46.5,135.24-115.43,151.82-55.02,13.23-103.85-.17-144.79-39.53-25.33-24.36-39.88-54.59-44.22-89.44-4.48-36.02,3.03-69.61,22.19-100.51,5.57-8.99,11.32-17.86,17-26.78,.26-.4,.55-.78,1.21-1.7Zm234.06,70.14c-24.46,51.83-64.5,82.1-122.8,82.1-58.33,0-98.44-30.27-122.93-82.34-16.4,48.71-1.93,109.67,48.05,145.37,48.44,34.61,113.73,31.63,159.32-7.57,45.94-39.49,52.42-98.34,38.36-137.56Z"/>
  <path d="M42.76,115.39c10.23-23.47,25.69-42.82,45.64-58.56,27.6-21.78,59.03-33.52,94.21-34.03,77.4-1.12,128.71,52.34,145.54,92.77-5.82-4.94-11.33-9.79-17.01-14.42-22.36-18.25-46.58-33.26-74.31-41.96-43.41-13.62-85.6-9.91-126.61,9.34-24.26,11.39-45.4,27.31-65.29,45.03-.71,.63-1.45,1.23-2.18,1.84Z"/>
  <path d="M117.37,152.91c1.38-30.37,29.74-64.62,71.63-62.41,41.1,2.17,63.86,37.63,64.11,62.22-.98-.83-1.8-1.49-2.58-2.2-10.58-9.62-21.62-18.63-34.7-24.72-23.9-11.14-47.19-9.22-69.27,4.55-9.16,5.71-17.31,13.06-25.9,19.69-1,.77-1.91,1.66-3.28,2.87Z"/>
  <path d="M154.79,189.55c-.01-17.09,13.48-30.62,30.53-30.62,17.02,0,30.61,13.61,30.58,30.62-.03,16.84-13.58,30.42-30.43,30.51-16.99,.09-30.67-13.51-30.69-30.5Z"/>
</svg>